<svg xmlns="http://www.w3.org/2000/svg" width="15.611" height="15.613" viewBox="0 0 15.611 15.613"><defs><style>.a{fill:#959595;}</style></defs><path class="a" d="M402.7,1464.6h-2.414a.792.792,0,0,1-.791-.791v-3.725h-2.933v3.725a.792.792,0,0,1-.791.791h-2.408a1.046,1.046,0,0,1-1.052-1.062v-6.317h-1.134a.9.9,0,0,1-.843-.568,1.071,1.071,0,0,1,.257-1.167l6.635-6.152.03-.026a1.165,1.165,0,0,1,1.605,0l.031.026,6.634,6.181.021.021a1.051,1.051,0,0,1,.247,1.133.909.909,0,0,1-.855.552h-1.193v6.3A1.039,1.039,0,0,1,402.7,1464.6Zm-.009-1.115h0Zm-2.081,0h2.021v-6.821a.558.558,0,0,1,.558-.557h1.336l-6.376-5.94a.1.1,0,0,0-.181,0l-6.406,5.94h1.307a.558.558,0,0,1,.558.557v6.821h2.021v-3.438a1.038,1.038,0,0,1,1.066-1.078h3.017a1.044,1.044,0,0,1,1.08,1.078Z" transform="translate(-390.257 -1448.985)"/></svg>