<svg xmlns="http://www.w3.org/2000/svg" width="15.809" height="16.2" viewBox="0 0 15.809 16.2"><defs><style>.a{fill:#fff;}.a,.b,.c,.d{stroke:#959595;stroke-width:1.2px;}.a,.c{stroke-miterlimit:10;}.b,.c,.d{fill:none;}.b,.d{stroke-linejoin:round;}.d{stroke-linecap:round;}</style></defs><g transform="translate(-383.805 -155.686)"><path class="a" d="M419.663,173.332a.118.118,0,0,1-.1-.032l-1.29-.8a.274.274,0,0,0-.225,0l-1.254.8a.352.352,0,0,1-.16.032.143.143,0,0,1-.1-.174.148.148,0,0,1,.006-.018l.418-1.414a.155.155,0,0,0-.065-.192l-1.092-1a.246.246,0,0,1-.065-.16.172.172,0,0,1,.16-.16h1.414a.215.215,0,0,0,.192-.129l.514-1.349a.182.182,0,0,1,.323,0l.514,1.349a.215.215,0,0,0,.193.129h1.382a.245.245,0,0,1,.16.065.159.159,0,0,1-.03.223l0,0-1.092.968a.236.236,0,0,0-.065.192l.418,1.414a.141.141,0,0,1-.032.16c0,.065-.065.1-.129.1" transform="translate(-26.515 -10.483)"/><path class="b" d="M400.932,162.967a4.705,4.705,0,0,0,9.408,0v-6.681h-9.408Z" transform="translate(-13.953)"/><path class="c" d="M386.839,167.4H384.6s-.847,3.6,2.244,4.547" transform="translate(0 -9.433)"/><path class="c" d="M464.313,167.4h2.244s.847,3.6-2.244,4.547" transform="translate(-67.735 -9.433)"/><path class="d" d="M404.723,242.851h4.806l-.6-1.732a.725.725,0,0,0-.693-.495H401.21a.725.725,0,0,0-.693.495l-.6,1.732Z" transform="translate(-13.091 -71.565)"/><path class="d" d="M420.026,229.532l-.558,1.68h3.673l-.529-1.654a6.41,6.41,0,0,1-1.3.167A5.408,5.408,0,0,1,420.026,229.532Z" transform="translate(-29.681 -62.153)"/><line class="d" x2="12.841" transform="translate(385.211 171.286)"/></g></svg>