<svg xmlns="http://www.w3.org/2000/svg" width="18.989" height="16.914" viewBox="0 0 18.989 16.914"><defs><style>.a{fill:#5401a5;}</style></defs><g transform="translate(-2.5 -8.1)"><circle class="a" cx="2.5" cy="2.5" r="2.5" transform="translate(5.5 9.014)"/><circle class="a" cx="2.5" cy="2.5" r="2.5" transform="translate(5.5 20.014)"/><circle class="a" cx="2.5" cy="2.5" r="2.5" transform="translate(13.5 14.014)"/><path class="a" d="M3.14,11.738H5.418a2.985,2.985,0,0,0,5.837,0H20.85a.64.64,0,0,0,0-1.279H11.255a2.982,2.982,0,0,0-5.837.02H3.14a.63.63,0,1,0,0,1.259Zm5.2-2.359A1.719,1.719,0,1,1,6.618,11.1,1.719,1.719,0,0,1,8.337,9.379Z"/><path class="a" d="M20.85,37.359H18.571a2.985,2.985,0,0,0-5.837,0H3.14a.64.64,0,0,0,0,1.279h9.595a2.985,2.985,0,0,0,5.837,0H20.85a.64.64,0,0,0,0-1.279Zm-5.2,2.359A1.719,1.719,0,1,1,17.372,38,1.719,1.719,0,0,1,15.653,39.717Z" transform="translate(0 -21.523)"/><path class="a" d="M20.85,64.259H11.255a2.985,2.985,0,0,0-5.837,0H3.14a.64.64,0,1,0,0,1.279H5.418a2.982,2.982,0,0,0,5.837-.02H20.85a.63.63,0,1,0,0-1.259ZM8.337,66.617A1.719,1.719,0,1,1,10.056,64.9,1.719,1.719,0,0,1,8.337,66.617Z" transform="translate(0 -43.046)"/></g></svg>