<svg xmlns="http://www.w3.org/2000/svg" width="84" height="85" viewBox="0 0 84 85"><defs><style>.a{fill:#c9c9c9;}.b{fill:#fff;}.b,.c,.d,.e{stroke:#fff;stroke-width:2px;}.b,.d{stroke-miterlimit:10;}.c,.d,.e{fill:none;}.c,.e{stroke-linejoin:round;}.e{stroke-linecap:round;}</style></defs><g transform="translate(-358.489 -130.286)"><ellipse class="a" cx="42" cy="42.5" rx="42" ry="42.5" transform="translate(358.489 130.286)"/><path class="b" d="M424.573,179.2a.266.266,0,0,1-.218-.073l-2.9-1.808a.617.617,0,0,0-.506,0l-2.822,1.808a.792.792,0,0,1-.361.073.322.322,0,0,1-.231-.392.331.331,0,0,1,.014-.041l.941-3.183a.348.348,0,0,0-.145-.433l-2.459-2.243a.552.552,0,0,1-.145-.361.387.387,0,0,1,.361-.361h3.182a.484.484,0,0,0,.433-.29l1.157-3.037a.409.409,0,0,1,.726,0l1.157,3.037a.484.484,0,0,0,.433.29h3.11a.551.551,0,0,1,.36.145.358.358,0,0,1-.068.5l-.005,0-2.459,2.178a.532.532,0,0,0-.145.433l.941,3.183a.317.317,0,0,1-.073.361c0,.145-.145.218-.29.218" transform="translate(-20.596 -8.143)"/><path class="c" d="M400.932,171.324a10.591,10.591,0,0,0,21.176,0V156.286H400.932Z" transform="translate(-10.838 0)"/><path class="d" d="M389.778,167.4h-5.05s-1.906,8.094,5.05,10.234" transform="translate(0 -7.327)"/><path class="d" d="M464.313,167.4h5.05s1.906,8.094-5.05,10.234" transform="translate(-52.613 -7.327)"/><path class="e" d="M410.734,245.637h10.817l-1.35-3.9a1.632,1.632,0,0,0-1.56-1.114H402.826a1.631,1.631,0,0,0-1.56,1.114l-1.35,3.9Z" transform="translate(-10.169 -55.588)"/><path class="e" d="M420.723,229.532l-1.255,3.781h8.267l-1.19-3.723a14.427,14.427,0,0,1-2.924.376A12.173,12.173,0,0,1,420.723,229.532Z" transform="translate(-23.055 -48.277)"/><line class="e" x2="28.903" transform="translate(386.115 190.049)"/></g></svg>